<?xml version="1.0" encoding="utf-8"?>
<!-- Generator: Adobe Illustrator 16.0.0, SVG Export Plug-In . SVG Version: 6.00 Build 0)  -->
<!DOCTYPE svg PUBLIC "-//W3C//DTD SVG 1.1//EN" "http://www.w3.org/Graphics/SVG/1.1/DTD/svg11.dtd">
<svg version="1.1" id="Layer_1" xmlns="http://www.w3.org/2000/svg" xmlns:xlink="http://www.w3.org/1999/xlink" x="0px" y="0px"
	 width="300px" height="300px" viewBox="0 0 300 300" enable-background="new 0 0 300 300" xml:space="preserve">
<rect x="96.566" y="69.543" fill="#FFFFFF" stroke="#F7941E" stroke-miterlimit="10" width="133.333" height="133.333"/>
<polygon fill="none" stroke="#2E3192" stroke-miterlimit="10" points="130.52,192.871 97.807,136.21 130.52,79.55 195.945,79.55 
	228.659,136.21 195.945,192.871 "/>
<circle fill="#F15A29" stroke="#F15A29" stroke-miterlimit="10" cx="163.233" cy="136.21" r="44.326"/>
<g>
	<path fill="#FFFFFF" d="M137.372,128.86c0.066,0,0.099-0.036,0.099-0.107c1.341-7.148,3.66-10.723,6.957-10.723
		c0.659,0,1.203,0.233,1.632,0.699c0.428,0.467,0.643,1.059,0.643,1.776c0,2.566-2.168,5.176-6.503,7.831v0.996
		c0,4.234-1.206,7.512-3.617,9.835c-2.412,2.323-5.796,3.485-10.154,3.485c-4.181,0-7.648-1.154-10.402-3.462
		c-2.754-2.307-4.131-5.203-4.131-8.688c0-2.981,1.211-5.567,3.633-7.758c2.422-2.191,5.48-3.475,9.175-3.853
		c2.3-2.496,4.911-3.745,7.831-3.745c2.654,0,5.209,1.033,7.665,3.098l-0.432,0.323c-2.434-1.994-4.811-2.99-7.134-2.99
		c-1.438,0-2.799,0.31-4.082,0.929c-1.283,0.62-2.301,1.459-3.052,2.519c0.177-0.09,0.387-0.135,0.63-0.135
		c2.854,0,5.287,0.845,7.3,2.532c2.013,1.688,3.02,3.718,3.02,6.088c0,0.539,0,1.069,0,1.589
		C136.493,129.102,136.801,129.021,137.372,128.86z M137.411,129.317c-0.221,0.054-0.619,0.162-1.194,0.323
		c-1.46,4.436-4.59,6.654-9.39,6.654c-2.256,0-4.12-0.574-5.591-1.724c-1.471-1.149-2.207-2.586-2.207-4.31
		c0-0.772,0.21-1.473,0.631-2.102l0.398,0.162c-0.266,0.862-0.398,1.509-0.398,1.94c0,1.508,0.658,2.806,1.974,3.893
		c1.316,1.087,2.87,1.63,4.662,1.63c2.035,0,3.849-0.534,5.441-1.603c1.593-1.068,2.82-2.545,3.683-4.431
		c-0.752,0.072-1.504,0.107-2.256,0.107c-2.765,0-5.088-0.705-6.968-2.115c-1.88-1.41-2.82-3.138-2.82-5.186
		c0-0.97,0.287-1.976,0.862-3.018c-3.274,0.467-6.022,1.788-8.245,3.96s-3.335,4.651-3.335,7.435c0,3.054,1.244,5.675,3.733,7.866
		s5.48,3.287,8.976,3.287c3.34,0,5.944-0.992,7.814-2.977C135.05,137.125,136.46,133.861,137.411,129.317z M135.52,129.183
		c0.199-0.575,0.299-1.212,0.299-1.913c0-2.191-0.952-4.041-2.854-5.55c-1.902-1.508-4.214-2.263-6.935-2.263h-0.929
		c-0.686,1.078-1.028,2.11-1.028,3.098c0,1.976,0.879,3.614,2.638,4.917s3.965,1.953,6.62,1.953
		C134.17,129.425,134.9,129.344,135.52,129.183z M140.199,127.701c3.694-2.442,5.541-5.02,5.541-7.731
		c0-1.005-0.443-1.509-1.327-1.509c-1.239,0-2.223,0.8-2.953,2.398C140.729,122.457,140.309,124.738,140.199,127.701z"/>
	<path fill="#FFFFFF" d="M144.081,138.961l1.925-5.657c1.172-3.448,2.477-6.294,3.915-8.54c1.305-2.065,2.555-3.368,3.75-3.906h0.1
		c0.486,0.449,0.73,1.114,0.73,1.993c0,2.694-2.002,5.774-6.006,9.241l-1.36,4.122c3.186-3.915,5.542-5.873,7.068-5.873
		c0.553,0,1,0.148,1.344,0.445c0.343,0.296,0.514,0.669,0.514,1.118c0,0.341-0.243,1.096-0.729,2.263l-1.128,2.694
		c-0.222,0.521-0.332,0.961-0.332,1.32c0,0.306,0.221,0.458,0.664,0.458c1.194,0,3.539-2.101,7.034-6.304
		c0.044,0.144,0.065,0.296,0.065,0.458c0,0.449-0.807,1.481-2.422,3.098c-2.566,2.55-4.412,3.825-5.541,3.825
		c-1.261,0-1.891-0.539-1.891-1.616c0-0.395,0.387-1.5,1.16-3.313c0.709-1.652,1.063-2.613,1.063-2.883
		c0-0.377-0.199-0.565-0.598-0.565c-0.929,0-2.511,1.356-4.745,4.068c-0.708,0.862-1.394,1.85-2.057,2.963
		c-0.398,0.665-0.719,1.015-0.962,1.05l-1.261,0.189c-0.022,0-0.044,0.009-0.066,0.027c-0.044,0-0.078,0-0.1,0
		c-0.155,0-0.232-0.09-0.232-0.27C143.981,139.294,144.015,139.16,144.081,138.961z M148.892,130.88
		c2.566-2.227,3.849-4.436,3.849-6.627c0-0.718-0.133-1.266-0.398-1.643c-0.687,0.646-1.306,1.688-1.858,3.125
		C150.042,126.812,149.511,128.527,148.892,130.88z"/>
	<path fill="#FFFFFF" d="M166.544,135.406c-2.013,2.874-3.749,4.31-5.209,4.31c-0.819,0-1.477-0.251-1.975-0.754
		c-0.497-0.502-0.747-1.194-0.747-2.074c0-1.724,1.096-3.395,3.285-5.011c1.461-1.078,3.098-1.616,4.911-1.616
		c1.062,0,2.035,0.178,2.92,0.535l0.133,0.134v0.081c0,0.232-0.222,0.946-0.663,2.141l-1.527,4.15
		c-0.133,0.357-0.199,0.66-0.199,0.91c0,0.357,0.211,0.536,0.631,0.536c0.951,0,3.296-2.164,7.035-6.492
		c0.066,0.321,0.1,0.455,0.1,0.401c0,0.303-0.398,0.883-1.195,1.738c-1.902,2.051-3.174,3.353-3.816,3.905
		c-1.105,0.945-2.111,1.417-3.019,1.417c-1.085,0-1.626-0.443-1.626-1.33C165.582,137.872,165.902,136.878,166.544,135.406z
		 M168.137,131.252c-0.354-0.248-0.841-0.372-1.46-0.372c-1.106,0-2.257,0.682-3.45,2.046c-1.66,1.878-2.489,3.42-2.489,4.625
		c0,0.797,0.343,1.196,1.028,1.196c0.73,0,1.648-0.62,2.754-1.86C165.715,135.54,166.92,133.661,168.137,131.252z"/>
	<path fill="#FFFFFF" d="M172.019,147.42h-0.133c-0.332-0.862-0.498-1.939-0.498-3.232c0-2.407,0.862-4.876,2.589-7.409
		c0.354-1.544,0.707-3.088,1.061-4.633c0.288-1.042,0.643-1.598,1.063-1.67l1.427-0.242c0.154,0,0.232,0.09,0.232,0.269v0.135
		l-0.929,3.098c2.145-2.334,4.014-3.502,5.607-3.502c0.796,0,1.432,0.21,1.908,0.629c0.475,0.419,0.713,0.977,0.713,1.673
		c0,1.981-1.77,3.757-5.309,5.327c0.397,0.518,1.017,0.776,1.857,0.776c1.084,0,2.312-0.565,3.684-1.697
		c1.238-1.023,2.775-2.685,4.611-4.983c0.066,0.072,0.1,0.188,0.1,0.35c0,0.503-0.63,1.419-1.891,2.748
		c-1.526,1.599-2.799,2.73-3.816,3.395c-1.194,0.772-2.389,1.159-3.583,1.159c-0.907,0-1.72-0.169-2.438-0.509
		c-0.72-0.339-1.079-0.642-1.079-0.91c0-0.16,0.177-0.312,0.531-0.455c0.442-0.178,0.874-0.356,1.294-0.535
		c2.41-1.142,3.617-2.542,3.617-4.202c0-0.928-0.51-1.392-1.527-1.392c-1.305,0-2.875,1.253-4.711,3.759
		C174.518,142.131,173.058,146.149,172.019,147.42z M172.383,145.266c0.531-0.845,0.974-3.107,1.328-6.789
		c-1.063,1.401-1.594,3.215-1.594,5.442C172.117,144.439,172.207,144.888,172.383,145.266z"/>
	<path fill="#FFFFFF" d="M201.516,132.173c0.066,0.162,0.1,0.27,0.1,0.323c0,0.521-0.475,1.311-1.426,2.371
		c-2.965,3.323-5.984,4.984-9.059,4.984c-1.174,0-2.113-0.307-2.82-0.918c-0.709-0.612-1.063-1.432-1.063-2.458
		c0-1.441,0.764-2.882,2.289-4.323c1.416-1.333,2.932-1.999,4.547-1.999c0.818,0,1.48,0.176,1.99,0.527
		c0.51,0.352,0.764,0.789,0.764,1.311c0,0.847-0.619,1.703-1.859,2.567c-1.348,0.918-3.162,1.666-5.441,2.243
		c0,1.531,0.818,2.296,2.457,2.296c1.326,0,2.797-0.574,4.412-1.724C198.131,136.151,199.834,134.418,201.516,132.173z
		 M189.537,136.187c1.594-0.307,2.898-0.885,3.916-1.733c0.951-0.812,1.428-1.678,1.428-2.599c0-0.704-0.365-1.056-1.096-1.056
		c-0.842,0-1.66,0.46-2.455,1.381C190.422,133.227,189.825,134.563,189.537,136.187z"/>
	<path fill="#FFFFFF" d="M205.066,139.177c-1.195,0.413-2.235,0.62-3.119,0.62c-0.974,0-1.759-0.144-2.356-0.431
		c-0.597-0.287-0.896-0.646-0.896-1.078c0-0.341,0.177-0.624,0.531-0.849c0.354-0.224,0.807-0.336,1.36-0.336
		c0.31,0,0.619,0.054,0.929,0.162v0.081c-0.421,0.215-0.631,0.521-0.631,0.916c0,0.611,0.575,0.916,1.726,0.916
		c0.841,0,1.521-0.162,2.041-0.486c0.52-0.324,0.779-0.729,0.779-1.216c0-0.415-0.177-0.792-0.53-1.135
		c-0.244-0.234-0.73-0.576-1.46-1.026c-0.93-0.594-1.516-0.982-1.759-1.162c-0.465-0.396-0.697-0.802-0.697-1.216
		c0-0.703,0.486-1.342,1.46-1.918c0.974-0.576,2.157-0.865,3.551-0.865c1.526,0,2.289,0.417,2.289,1.252
		c0,0.327-0.21,0.631-0.63,0.912c-0.421,0.281-0.974,0.44-1.659,0.476l-0.1-0.164c0.42-0.31,0.631-0.646,0.631-1.011
		c0-0.546-0.454-0.819-1.36-0.819c-0.643,0-1.173,0.126-1.593,0.378c-0.421,0.252-0.631,0.568-0.631,0.946
		c0,0.396,0.254,0.784,0.764,1.163c0.641,0.396,1.282,0.793,1.924,1.189c1.15,0.757,1.726,1.479,1.726,2.164
		c0,0.522-0.321,1.072-0.962,1.649c1.747-0.197,4.103-2.308,7.067-6.331c0.088,0.054,0.133,0.153,0.133,0.296
		c0,0.557-0.604,1.495-1.809,2.815c-1.206,1.32-2.284,2.286-3.235,2.896C207.443,138.665,206.282,139.069,205.066,139.177z"/>
</g>
</svg>
